<?xml version="1.0" encoding="UTF-8"?>
<svg version="1.1" xmlns="http://www.w3.org/2000/svg" width="1024" height="1024">
<path d="M0 0 C337.92 0 675.84 0 1024 0 C1024 337.92 1024 675.84 1024 1024 C686.08 1024 348.16 1024 0 1024 C0 686.08 0 348.16 0 0 Z " fill="#FEFEFE" transform="translate(0,0)"/>
<path d="M0 0 C0.71128241 -0.00779995 1.42256481 -0.01559991 2.15540123 -0.02363622 C4.53333054 -0.04354374 6.90965714 -0.02779833 9.28759766 -0.01205444 C10.99449598 -0.01883118 12.70138699 -0.02773463 14.40826416 -0.03860474 C19.04056983 -0.06139813 23.67231869 -0.05256166 28.30463409 -0.03670931 C33.15232341 -0.02405051 37.99996506 -0.03579037 42.84765625 -0.04364014 C50.98853109 -0.05273676 59.12917913 -0.04074846 67.27001953 -0.01693726 C76.68201816 0.01027405 86.09347524 0.0014599 95.50546074 -0.02606928 C103.58629937 -0.04875899 111.66697497 -0.05196111 119.74783516 -0.03887594 C124.57422894 -0.03108066 129.40036818 -0.03004193 134.22674561 -0.04655838 C138.7643341 -0.06100189 143.30122442 -0.05098386 147.83873749 -0.0220871 C149.50401398 -0.01547561 151.16934923 -0.0173751 152.83460236 -0.02840042 C155.10830144 -0.04206627 157.37976381 -0.02493192 159.65332031 0 C160.92535309 0.00188513 162.19738586 0.00377026 163.50796509 0.00571251 C167.72461792 0.8051659 169.211918 2.29493172 171.82666016 5.63491821 C172.42793274 8.96958923 172.42793274 8.96958923 172.39428711 12.81192017 C172.39538231 13.86640099 172.39538231 13.86640099 172.39649963 14.94218445 C172.39303107 17.25332265 172.35421025 19.56241583 172.31494141 21.87319946 C172.30561054 23.48029988 172.29849572 25.08741456 172.29350281 26.6945343 C172.27445417 30.91499416 172.2253729 35.13458731 172.16998291 39.35470581 C172.11874368 43.66478756 172.09597886 47.97501 172.07080078 52.28530884 C172.01725107 60.73557542 171.93196541 69.18513886 171.82666016 77.63491821 C173.06641602 77.60873413 174.30617188 77.58255005 175.58349609 77.55557251 C180.23516398 77.46426334 184.88675466 77.40737867 189.5390625 77.36026001 C191.54277927 77.3352981 193.54640671 77.30131599 195.54980469 77.25772095 C219.51007024 76.74983502 219.51007024 76.74983502 229.70166016 84.94741821 C230.40291016 85.83429321 231.10416016 86.72116821 231.82666016 87.63491821 C232.33841797 88.24464478 232.85017578 88.85437134 233.37744141 89.48257446 C239.68096371 97.29051736 240.12293173 104.26183371 240.08544922 114.02700806 C240.09070618 115.71860802 240.09070618 115.71860802 240.09606934 117.44438171 C240.10485078 121.16160287 240.09904923 124.87863271 240.09228516 128.59585571 C240.09363302 131.18745968 240.09557457 133.7790634 240.0980835 136.3706665 C240.10103007 141.79927209 240.09694475 147.22780627 240.08740234 152.65640259 C240.07653018 158.91334424 240.08003732 165.1701554 240.09105515 171.42709386 C240.10126214 177.46751336 240.10013376 183.50786957 240.09429169 189.54829788 C240.09296076 192.1086593 240.09458332 194.66902406 240.09925079 197.22938156 C240.10435128 200.81435607 240.09655561 204.39908314 240.08544922 207.98403931 C240.08949768 209.03472092 240.09354614 210.08540253 240.09771729 211.16792297 C240.03252148 222.57456929 238.07297649 230.92049386 230.15869141 239.42788696 C223.0349998 246.02993525 215.56954141 247.08170069 206.20166016 246.92788696 C205.21415771 246.92364212 204.22665527 246.91939728 203.20922852 246.9150238 C200.08141839 246.89834467 196.95427276 246.86071256 193.82666016 246.82241821 C191.6951591 246.80735746 189.56364786 246.7936715 187.43212891 246.78140259 C182.23008251 246.74847661 177.02841883 246.69838589 171.82666016 246.63491821 C171.83776321 247.36883789 171.84886627 248.10275757 171.86030579 248.85891724 C171.96082123 255.80230287 172.0367835 262.74557864 172.08572102 269.68950653 C172.11172743 273.25886778 172.14695744 276.82762391 172.20385742 280.39663696 C172.258503 283.84614438 172.28814793 287.29507274 172.30104637 290.74497986 C172.31467321 292.69038005 172.35365464 294.63554981 172.3931427 296.58059692 C172.39511155 302.83997078 172.11280153 307.6505862 168.68449402 312.98318481 C161.15682431 319.67576574 152.94599782 319.21382036 143.44970703 319.16836548 C141.89501632 319.1754313 140.34033248 319.1841791 138.78565979 319.19447327 C134.58107146 319.21690118 130.37686072 319.21404336 126.17223549 319.2051518 C122.65582288 319.20002832 119.13948039 319.20734536 115.62307501 319.21462387 C107.32547678 319.23160143 99.02806257 319.22807813 90.73046875 319.21133423 C82.182448 319.19440763 73.63493774 319.21025953 65.08697271 319.24255711 C57.73469192 319.26928005 50.38256977 319.27652194 43.0302453 319.26804203 C38.64475831 319.26312158 34.25957848 319.2652807 29.87413025 319.28582954 C25.75016427 319.30422987 21.62693105 319.29817556 17.50300407 319.27363014 C15.99378255 319.26863631 14.48450476 319.27207491 12.97532845 319.28477859 C-2.0189682 319.40096616 -2.0189682 319.40096616 -8.17333984 313.63491821 C-13.42325024 307.38006934 -12.69131131 300.69897629 -12.56396484 292.82632446 C-12.55649322 291.49112296 -12.55080464 290.15591041 -12.54681396 288.82069397 C-12.53162963 285.32699664 -12.49241243 281.83397732 -12.44799805 278.34054565 C-12.40688807 274.76753915 -12.38876963 271.19442179 -12.36865234 267.62124634 C-12.32590926 260.62552725 -12.25774727 253.63025539 -12.17333984 246.63491821 C-12.72742523 246.64602127 -13.28151062 246.65712433 -13.85238647 246.66856384 C-19.66054026 246.77986034 -25.46838734 246.85487402 -31.27734375 246.90957642 C-33.4402295 246.93459861 -35.60303173 246.9686273 -37.765625 247.01211548 C-40.88871966 247.07331028 -44.01068897 247.10125165 -47.13427734 247.12319946 C-48.56614883 247.1619091 -48.56614883 247.1619091 -50.02694702 247.20140076 C-58.19148493 247.20475153 -64.54173234 244.69824139 -70.79443359 239.42398071 C-71.39384766 238.70984009 -71.99326172 237.99569946 -72.61083984 237.25991821 C-73.22830078 236.55093384 -73.84576172 235.84194946 -74.48193359 235.11148071 C-79.37291848 227.95008482 -79.6151513 221.92748881 -79.59326172 213.43252563 C-79.60173126 212.21861649 -79.61020081 211.00470734 -79.618927 209.75401306 C-79.63825979 206.43963017 -79.64407813 203.12581151 -79.64217949 199.81141067 C-79.64205935 197.03586818 -79.65064142 194.26037768 -79.658957 191.48484975 C-79.67816019 184.9309144 -79.68108661 178.3771064 -79.67431641 171.82315063 C-79.66768159 165.08322206 -79.6905239 158.34384158 -79.72763014 151.60402411 C-79.75841867 145.79907195 -79.76967721 139.99429525 -79.76579332 134.18926316 C-79.76373478 130.73032336 -79.76906441 127.27181002 -79.79368591 123.81294823 C-79.82027593 119.95024903 -79.80615551 116.08825644 -79.78857422 112.22549438 C-79.80183746 111.0942514 -79.81510071 109.96300842 -79.82876587 108.79748535 C-79.73109024 99.527208 -77.11799314 92.64624084 -70.86083984 85.75991821 C-62.9858597 78.48542675 -54.82054033 77.47759088 -44.49755859 77.53726196 C-43.57239944 77.53867691 -42.6472403 77.54009186 -41.69404602 77.54154968 C-38.74961058 77.54713106 -35.80525217 77.55968016 -32.86083984 77.57241821 C-30.8601899 77.57743562 -28.85953877 77.58199811 -26.85888672 77.58609009 C-21.96367491 77.5970944 -17.06852042 77.61434624 -12.17333984 77.63491821 C-12.1844429 76.74399979 -12.19554596 75.85308136 -12.20698547 74.93516541 C-12.30722339 66.53388889 -12.38332299 58.13281356 -12.4324007 49.73107624 C-12.45848066 45.41173581 -12.49384854 41.09288999 -12.55053711 36.77383423 C-12.60491542 32.60464311 -12.63477243 28.43592733 -12.64772606 24.26640892 C-12.65695563 22.67675481 -12.67497941 21.08712635 -12.70199013 19.49767494 C-12.73836079 17.26852096 -12.74328229 15.04132373 -12.7409668 12.81192017 C-12.75206985 11.54395096 -12.76317291 10.27598175 -12.77461243 8.96958923 C-11.46865534 1.72672241 -6.79327623 0.0100675 0 0 Z " fill="#01264F" transform="translate(140.17333984375,332.3650817871094)"/>
<path d="M0 0 C49.83 0 99.66 0 151 0 C151.103125 14.416875 151.20625 28.83375 151.3125 43.6875 C151.35802002 48.23619873 151.40354004 52.78489746 151.45043945 57.47143555 C151.47302246 63.03479004 151.47302246 63.03479004 151.47721863 65.64094543 C151.48488635 67.45745468 151.50245112 69.27393879 151.52787781 71.09028625 C151.56451108 73.84538839 151.56952935 76.59893864 151.56762695 79.35424805 C151.58561749 80.1606734 151.60360804 80.96709875 151.62214375 81.79796124 C151.58861351 85.42864201 151.09556589 87.8309049 149.30400085 91.00091553 C143.98201153 94.22098316 138.67019793 93.68629667 132.56835938 93.63110352 C131.18658022 93.63624433 129.80480762 93.64352684 128.42304993 93.65278625 C124.67701459 93.67128848 120.93169172 93.65836987 117.18568611 93.63869596 C113.26290192 93.62229803 109.34016245 93.63112393 105.4173584 93.63621521 C98.83004388 93.64073491 92.24301342 93.6248742 85.65576172 93.59692383 C78.04333129 93.56487228 70.43141316 93.56488793 62.81894636 93.5821386 C55.49168451 93.59801037 48.16461023 93.59126601 40.83735657 93.57420158 C37.7210032 93.56733454 34.60480033 93.56835991 31.4884491 93.57574654 C27.81763068 93.583416 24.14739425 93.57126262 20.47667503 93.54389763 C18.48934109 93.53374212 16.50193722 93.54318948 14.51460266 93.55322266 C13.32855942 93.5404982 12.14251617 93.52777374 10.92053223 93.5146637 C9.8918528 93.51185678 8.86317337 93.50904985 7.80332184 93.50615788 C4.21687085 92.85860097 2.53557242 91.58414779 0 89 C-0.47734836 85.93571545 -0.63480602 83.43569446 -0.56762695 80.37597656 C-0.56853096 79.05197657 -0.56853096 79.05197657 -0.56945324 77.7012291 C-0.5657243 74.84705101 -0.52766811 71.99451052 -0.48828125 69.140625 C-0.48092877 67.3774494 -0.47582853 65.61426292 -0.47302246 63.85107422 C-0.44682018 57.31721626 -0.3770138 50.783592 -0.3125 44.25 C-0.209375 29.6475 -0.10625 15.045 0 0 Z " fill="#FDFDFD" transform="translate(145,530)"/>
<path d="M0 0 C26.6322494 -0.16043524 26.6322494 -0.16043524 38 -0.1953125 C45.75141374 -0.21920735 53.50263815 -0.2474505 61.25390625 -0.30175781 C67.50440036 -0.34527539 73.75469138 -0.36914996 80.00532532 -0.37950897 C82.38791602 -0.38688963 84.77049582 -0.40130233 87.15299988 -0.42292023 C90.49482082 -0.4520318 93.83580666 -0.45595262 97.17773438 -0.45410156 C98.15885193 -0.46848267 99.13996948 -0.48286377 100.15081787 -0.49768066 C107.4865652 -0.4538233 112.63750971 1.26674971 118.34179688 5.90356445 C118.96119141 6.550271 119.58058594 7.19697754 120.21875 7.86328125 C120.92386719 8.58580078 121.62898438 9.30832031 122.35546875 10.05273438 C123.06316406 10.79845703 123.77085937 11.54417969 124.5 12.3125 C129.23650325 17.22586721 133.98016088 21.99573049 139.17651367 26.42626953 C144.51825009 31.036369 147.78161295 34.56322591 151 41 C151 52.55 151 64.1 151 76 C101.17 76 51.34 76 0 76 C0 50.92 0 25.84 0 0 Z " fill="#FEFEFE" transform="translate(145,387)"/>
<path d="M0 0 C3.94879585 -0.04055908 7.8954344 -0.01800229 11.84410477 0.01417923 C13.35925944 0.02269717 14.87441669 0.03076721 16.38957596 0.03842545 C20.48418849 0.060514 24.57872985 0.08920081 28.67328978 0.11938047 C32.96178553 0.15014056 37.2503129 0.17569942 41.53883743 0.20207596 C48.73274449 0.24717569 55.92661168 0.29665312 63.12047195 0.34865189 C71.44344883 0.40874949 79.76644847 0.46148968 88.08949792 0.5104202 C96.09857946 0.55770607 104.10761555 0.61053333 112.11664581 0.66577911 C115.5256919 0.68917387 118.93474189 0.71054329 122.34381104 0.73028564 C126.35099164 0.7537153 130.35810965 0.78195715 134.36523056 0.81397438 C135.8382628 0.82495243 137.31130874 0.83423731 138.78436279 0.84173775 C140.78887402 0.85221701 142.79334734 0.86933237 144.7978096 0.88682938 C146.48293183 0.89845643 146.48293183 0.89845643 148.20209694 0.91031837 C150.83092117 1.05177689 150.83092117 1.05177689 152.83092117 2.05177689 C154.71810867 1.92802689 154.71810867 1.92802689 156.64342117 1.80177689 C160.29248163 1.73543033 160.71142807 1.95516544 163.76842117 4.42677689 C166.29765656 7.64580374 166.95479214 9.12317531 166.98482132 13.11076736 C166.99342178 13.96019913 167.00202225 14.80963089 167.01088333 15.68480301 C167.01727325 17.08582764 167.01727325 17.08582764 167.02379227 18.51515579 C167.0360585 19.98861465 167.0360585 19.98861465 167.04857254 21.49184036 C167.07345415 24.75400046 167.08995192 28.01611689 167.10435867 31.27833939 C167.10968235 32.39184139 167.11500603 33.5053434 167.12049103 34.65258789 C167.14723785 40.54915301 167.16660567 46.44569686 167.18101883 52.34230423 C167.19764737 58.42875386 167.24240632 64.51466 167.29339027 70.60090446 C167.32707936 75.2832996 167.3385983 79.96556619 167.34424591 84.64807129 C167.35095644 86.89111726 167.36617323 89.13415483 167.39013672 91.37708282 C167.4218181 94.52251244 167.42181976 97.66648296 167.41441727 100.81203079 C167.4308226 101.73390182 167.44722794 102.65577286 167.4641304 103.60557938 C167.40379496 109.8893766 166.17338621 114.37376368 161.83092117 119.05177689 C155.36666553 124.66279036 146.4923801 123.62370076 138.45396805 123.58522415 C136.89927733 123.59228997 135.3445935 123.60103777 133.78992081 123.61133194 C129.58533248 123.63375986 125.38112174 123.63090203 121.17649651 123.62201047 C117.6600839 123.61688699 114.1437414 123.62420403 110.62733603 123.63148254 C102.3297378 123.6484601 94.03232358 123.6449368 85.73472977 123.6281929 C77.18670902 123.6112663 68.63919875 123.6271182 60.09123373 123.65941578 C52.73895294 123.68613873 45.38683079 123.69338062 38.03450632 123.6849007 C33.64901932 123.67998025 29.2638395 123.68213937 24.87839127 123.70268822 C20.75442528 123.72108854 16.63119206 123.71503424 12.50726509 123.69048882 C10.99804357 123.68549498 9.48876578 123.68893359 7.97958946 123.70163727 C-6.18379471 123.81138627 -6.18379471 123.81138627 -11.6649456 119.56811047 C-16.42795226 114.76647002 -17.62383178 110.42040184 -17.73340988 103.72208023 C-17.72845505 102.79511841 -17.72350021 101.86815659 -17.71839523 100.91310501 C-17.7286171 99.91870911 -17.73883896 98.9243132 -17.74937057 97.89978409 C-17.77707061 94.62728383 -17.7752569 91.35563012 -17.77064133 88.08302689 C-17.77841926 85.80051233 -17.78708943 83.51800065 -17.79661179 81.23549271 C-17.81151557 76.4575244 -17.8109681 71.67985173 -17.80042648 66.90187454 C-17.78882817 60.78498272 -17.82272823 54.66930032 -17.86911583 48.55260849 C-17.89860365 43.84103216 -17.90033247 39.12974689 -17.89409637 34.41809464 C-17.89512178 32.16307552 -17.90557843 29.9080399 -17.92572021 27.6531105 C-17.95044839 24.49809339 -17.93687311 21.34542932 -17.91370773 18.19044876 C-17.92899521 17.26348694 -17.94428268 16.33652512 -17.96003342 15.38147354 C-17.87039743 9.84711097 -16.95119307 6.29438204 -12.95144272 2.32019234 C-8.97892824 -0.50683909 -4.63861188 0.07578634 0 0 Z M-0.16907883 2.05177689 C-0.27220383 16.65427689 -0.37532883 31.25677689 -0.48157883 46.30177689 C-0.52709885 50.91178665 -0.57261887 55.52179642 -0.61951828 60.27150345 C-0.6362409 64.4054968 -0.6362409 64.4054968 -0.64629745 68.53950882 C-0.65397329 70.38022782 -0.67155482 72.22092175 -0.69695663 74.06148148 C-0.73352498 76.85068269 -0.73861035 79.63834867 -0.73670578 82.42775345 C-0.75469632 83.24714527 -0.77268686 84.06653709 -0.79122257 84.91075897 C-0.75715433 88.63441401 -0.66186393 90.54955123 1.99846745 93.26084805 C5.24868192 95.31592234 6.94042604 95.55604157 10.7514534 95.56644058 C11.93749664 95.57916504 13.12353989 95.5918895 14.34552383 95.60499954 C16.28445763 95.59521072 16.28445763 95.59521072 18.2625618 95.58522415 C19.64434098 95.5922852 21.02611242 95.60103101 22.40787125 95.61133194 C26.15378619 95.63381388 29.89927839 95.63088944 33.64523506 95.62201047 C36.77407204 95.61689714 39.90282983 95.62419582 43.03165865 95.63148254 C50.41289614 95.64847731 57.79392687 95.64491957 65.17515945 95.6281929 C72.78764315 95.61126521 80.3995537 95.62711551 88.01197481 95.65941578 C94.55142091 95.68611109 101.09068858 95.6933881 107.6301837 95.6849007 C111.53440925 95.67997204 115.43828983 95.68218356 119.34247208 95.70268822 C123.01335312 95.72104525 126.68340941 95.71508776 130.35424614 95.69048882 C132.34161148 95.68309496 134.32902071 95.70033554 136.31631851 95.71831131 C143.06480343 95.68169473 143.06480343 95.68169473 149.13492203 93.05269241 C151.35194083 89.12988021 151.49641846 85.79305905 151.39854813 81.40602493 C151.3991508 80.53314992 151.39975348 79.66027491 151.40037441 78.76094913 C151.39665189 75.94447581 151.35862551 73.12967164 151.31920242 70.31349564 C151.31184794 68.57119416 151.30674893 66.82888166 151.30394363 65.08656693 C151.2777645 58.63730141 151.20795796 52.18827262 151.14342117 45.73927689 C151.04029617 31.32240189 150.93717117 16.90552689 150.83092117 2.05177689 C101.00092117 2.05177689 51.17092117 2.05177689 -0.16907883 2.05177689 Z " fill="#043767" transform="translate(145.1690788269043,527.9482231140137)"/>
<path d="M0 0 C9.43703203 7.83640469 14.77866641 18.54575767 16.12939453 30.67089844 C17.55988987 47.89024765 16.37685368 64.17270143 5.125 78.125 C-3.4410156 87.32278247 -15.28087904 91.35910073 -27.5703125 92.11328125 C-42.16263512 92.49526129 -53.51990434 89.41799025 -64.46484375 79.21875 C-74.09355733 68.83051957 -77.27582233 54.90999137 -77.1875 41.125 C-77.18177979 40.07876465 -77.17605957 39.0325293 -77.17016602 37.95458984 C-76.87771227 25.1870637 -73.64350045 13.43818692 -64.6875 3.875 C-46.72942014 -11.98659128 -19.8186621 -14.2761549 0 0 Z " fill="#0E1014" transform="translate(484.6875,561.125)"/>
<path d="M0 0 C7.71946957 5.53760296 12.16522002 13.67545348 14.3125 22.8125 C16.48140337 36.13874281 15.22342975 49.27908893 7.72265625 60.7421875 C2.40248332 67.71511257 -3.29348504 71.57249164 -12 73 C-18.98969654 73.69214568 -24.76525551 73.32519706 -31 70 C-33.31 67.36 -35.62 64.72 -38 62 C-38.33 74.54 -38.66 87.08 -39 100 C-45.27 100 -51.54 100 -58 100 C-58 66.01 -58 32.02 -58 -3 C-51.73 -3 -45.46 -3 -39 -3 C-38.67 0.96 -38.34 4.92 -38 9 C-37.01 7.35 -36.02 5.7 -35 4 C-24.58802734 -5.93870117 -12.67041996 -6.18666023 0 0 Z " fill="#101216" transform="translate(645,471)"/>
<path d="M0 0 C8.84702669 10.89476545 10.2812989 22.62087797 9.73828125 36.140625 C8.58643707 46.9154712 4.58181623 55.62106212 -3.26171875 63.140625 C-11.77392453 69.60990139 -19.95070024 70.14279814 -30.26171875 69.140625 C-36.44579296 67.01541956 -39.02642472 63.22297783 -43.26171875 58.140625 C-43.59171875 70.350625 -43.92171875 82.560625 -44.26171875 95.140625 C-50.53171875 95.140625 -56.80171875 95.140625 -63.26171875 95.140625 C-63.26171875 61.810625 -63.26171875 28.480625 -63.26171875 -5.859375 C-57.32171875 -5.859375 -51.38171875 -5.859375 -45.26171875 -5.859375 C-44.93171875 -2.229375 -44.60171875 1.400625 -44.26171875 5.140625 C-43.80796875 4.274375 -43.35421875 3.408125 -42.88671875 2.515625 C-39.35569387 -2.79352312 -33.27533272 -5.89758331 -27.32421875 -7.796875 C-17.31141842 -8.00121786 -7.66840672 -6.9808944 0 0 Z " fill="#0D0F13" transform="translate(740.26171875,474.859375)"/>
<path d="M0 0 C57.59808612 0 57.59808612 0 67.71484375 9.6328125 C74.24318453 16.75173667 75.56070589 23.38791124 75.5 32.8125 C75.49645508 33.79210693 75.49291016 34.77171387 75.48925781 35.78100586 C75.32593937 42.86346376 74.37645125 48.24954662 70 54 C69.4225 54.928125 68.845 55.85625 68.25 56.8125 C60.52671406 64.32125022 50.24284154 67.14971704 39.7265625 67.09765625 C38.16542725 67.09390991 38.16542725 67.09390991 36.57275391 67.09008789 C35.26999512 67.08098389 33.96723633 67.07187988 32.625 67.0625 C28.45875 67.041875 24.2925 67.02125 20 67 C20 77.89 20 88.78 20 100 C13.4 100 6.8 100 0 100 C0 67 0 34 0 0 Z " fill="#0E1015" transform="translate(412,336)"/>
<path d="M0 0 C8.37532593 5.98634408 14.11900487 14.66680667 16.29296875 24.74609375 C17.27089766 36.6768265 17.02945089 48.8925974 9.79296875 59.05859375 C3.98461743 65.8543648 -2.82346212 71.56410827 -11.93041992 72.94238281 C-14.57724914 73.09335881 -17.18160169 73.1142376 -19.83203125 73.05859375 C-20.75781982 73.04578369 -21.6836084 73.03297363 -22.63745117 73.01977539 C-32.53389396 72.72528522 -39.39044406 70.34648887 -46.64453125 63.47265625 C-54.53162288 54.84614978 -56.91943322 45.07075187 -56.83203125 33.62109375 C-56.85201172 32.69619141 -56.87199219 31.77128906 -56.89257812 30.81835938 C-56.88492 19.89021734 -53.11331894 12.48478322 -45.62109375 4.6875 C-33.91256343 -6.50749829 -13.94869427 -8.39652232 0 0 Z " fill="#0E1014" transform="translate(821.39453125,471.44140625)"/>
<path d="M0 0 C5.29778343 3.41656415 8.39286399 7.58575165 10.6875 13.4375 C11.38243663 16.86087911 11.58712817 19.92448599 11.6875 23.4375 C5.4175 23.4375 -0.8525 23.4375 -7.3125 23.4375 C-8.3025 20.7975 -9.2925 18.1575 -10.3125 15.4375 C-16.44205959 11.09108502 -21.85178954 9.66849368 -29.3125 10.4375 C-33.78128481 11.59253351 -37.22588615 12.91640678 -40.3125 16.4375 C-41.88705739 19.58661479 -41.66049118 21.95758816 -41.3125 25.4375 C-38.10742096 30.99297033 -35.06394829 32.03470101 -29.07666016 33.72314453 C-25.59228617 34.62362839 -22.09174047 35.41273769 -18.57446289 36.1730957 C4.79976502 41.28681671 4.79976502 41.28681671 11.69921875 51.60546875 C15.24180535 58.17255615 14.61009271 66.74712914 12.8515625 73.78125 C9.71476652 82.11796952 5.64076547 86.67943173 -2.0625 90.96875 C-9.96847583 94.45668052 -17.44687297 94.92002892 -26 95 C-27.04470459 95.01474365 -28.08940918 95.0294873 -29.16577148 95.04467773 C-40.47121901 94.89579281 -49.06190114 91.7662803 -57.20703125 83.8671875 C-62.78374187 77.43172552 -63.3125 73.04054947 -63.3125 64.4375 C-57.0425 64.4375 -50.7725 64.4375 -44.3125 64.4375 C-43.3225 67.4075 -42.3325 70.3775 -41.3125 73.4375 C-34.3844875 78.47605454 -27.67638612 79.22092469 -19.3125 78.4375 C-14.18274493 77.20098879 -10.40904492 75.84734347 -7.125 71.625 C-6.13573196 67.74402539 -6.2406409 65.29619276 -7.3125 61.4375 C-13.31761824 54.23135811 -23.68678846 53.31539878 -32.4375 51.5 C-42.75888248 49.31418219 -51.72670436 46.16367922 -58.3125 37.4375 C-62.20854652 31.13425331 -62.20850213 23.60551702 -61.3125 16.4375 C-58.82063537 8.13128458 -53.51351873 2.24331273 -45.9375 -1.84375 C-31.57684942 -8.45720751 -13.88143297 -7.24873645 0 0 Z " fill="#0E1014" transform="translate(471.3125,449.5625)"/>
<path d="M0 0 C7.05355969 6.47539906 10.14389211 13.71946054 12 23 C12 27.29 12 31.58 12 36 C-5.49 36 -22.98 36 -41 36 C-38.30091916 46.26392033 -38.30091916 46.26392033 -31.4375 52.8125 C-26.03550633 54.67864327 -20.31496873 55.16893111 -14.83984375 53.23828125 C-12.10975604 51.77180101 -10.24844222 50.40654182 -8.625 47.75 C-7 46 -7 46 -5.140625 45.71484375 C0.27188374 45.64952037 5.63836197 46.31915708 11 47 C10.63564959 54.28700829 6.17261092 58.54884922 1.5625 63.75 C-6.90005398 70.26815516 -20.85728116 71.12433873 -31 70 C-40.94459951 68.16201404 -48.45725094 63.28898686 -54.40234375 55.05859375 C-60.87574806 43.35761012 -61.88737312 28.83714539 -58.375 16.125 C-55.24410496 7.11546638 -50.18050288 0.92060324 -42 -4 C-28.49372699 -10.49925919 -11.83271948 -9.62661924 0 0 Z " fill="#0E1014" transform="translate(784,367)"/>
<path d="M0 0 C1.39545044 0.01244751 1.39545044 0.01244751 2.8190918 0.02514648 C9.41030597 0.18788536 14.99429947 0.74614055 20.625 4.4375 C21.33527344 4.90027344 22.04554688 5.36304688 22.77734375 5.83984375 C29.75616464 11.15518405 33.529002 19.05350802 35.625 27.4375 C35.625 32.3875 35.625 37.3375 35.625 42.4375 C18.135 42.4375 0.645 42.4375 -17.375 42.4375 C-14.68310388 52.67481977 -14.68310388 52.67481977 -7.58203125 59.57421875 C-2.07810895 61.72708039 4.63812034 61.11161989 10.125 59.25 C12.76960144 57.57434288 12.76960144 57.57434288 14.2421875 54.8203125 C16.625 52.4375 16.625 52.4375 18.50683594 52.09350586 C20.78289028 52.09788487 22.98653007 52.26263948 25.25 52.5 C26.02601563 52.55349609 26.80203125 52.60699219 27.6015625 52.66210938 C33.32128814 53.13378814 33.32128814 53.13378814 35.625 55.4375 C31.71107045 64.56399011 27.76564859 69.88128194 18.5 73.75 C7.89916599 77.76341479 -5.52078251 78.49434803 -16.125 74.25 C-24.44209814 70.1258191 -29.42815254 64.93748775 -33.375 56.4375 C-35.32761554 50.2156064 -35.71092016 44.49675141 -35.6875 38 C-35.70361328 37.10990234 -35.71972656 36.21980469 -35.73632812 35.30273438 C-35.74362396 25.31473279 -32.79405844 17.13167614 -26.375 9.4375 C-18.64052428 2.08734605 -10.42780741 -0.11923396 0 0 Z " fill="#0E1014" transform="translate(785.375,576.5625)"/>
<path d="M0 0 C6.27 0 12.54 0 19 0 C19.33 3.63 19.66 7.26 20 11 C20.825 9.9275 21.65 8.855 22.5 7.75 C27.17581457 2.45074349 30.82055393 0.33401515 37.94140625 -0.4140625 C46.33183588 -0.82879857 54.26618181 -0.63973554 61 5 C66.0474083 10.85160752 69.26166039 16.99558294 69.22705078 24.80004883 C69.22689972 25.94085403 69.22674866 27.08165924 69.22659302 28.2570343 C69.21627045 29.47803329 69.20594788 30.69903229 69.1953125 31.95703125 C69.1924826 33.21513107 69.18965271 34.4732309 69.18673706 35.76945496 C69.17745121 39.10187382 69.15950476 42.43401547 69.1373291 45.76635742 C69.11681017 49.17168797 69.10772246 52.57704723 69.09765625 55.98242188 C69.07561637 62.65503405 69.04109668 69.32747908 69 76 C62.73 76 56.46 76 50 76 C49.98541748 74.55753906 49.97083496 73.11507812 49.95581055 71.62890625 C49.89763828 66.25382263 49.82040617 60.87914963 49.73754883 55.50439453 C49.70438847 53.18252245 49.67632913 50.86057149 49.65356445 48.53857422 C49.61985528 45.19204232 49.56752991 41.84622756 49.51171875 38.5 C49.50532883 37.4694751 49.4989389 36.4389502 49.49235535 35.37719727 C49.35707792 28.67685237 49.0246849 21.93302778 43.9375 17 C39.56947958 15.51301432 35.56177578 15.34099547 31 16 C26.01330993 18.49334503 22.50324526 21.99350949 20 27 C19.88159887 28.57206643 19.82296967 30.14883269 19.79467773 31.72509766 C19.77473251 32.70596344 19.75478729 33.68682922 19.73423767 34.69741821 C19.70916893 36.28965714 19.70916893 36.28965714 19.68359375 37.9140625 C19.66281265 38.99883881 19.64203156 40.08361511 19.62062073 41.20126343 C19.55509366 44.67577621 19.49622553 48.15036624 19.4375 51.625 C19.39431779 53.97657058 19.3507036 56.32813326 19.30664062 58.6796875 C19.19940902 64.45304529 19.09815045 70.22648098 19 76 C12.73 76 6.46 76 0 76 C0 50.92 0 25.84 0 0 Z " fill="#101216" transform="translate(590,360)"/>
<path d="M0 0 C5.73180356 6.05933519 8.3194279 11.68109064 8.30102539 19.99902344 C8.30091209 21.71034454 8.30091209 21.71034454 8.30079651 23.45623779 C8.29563522 24.68239807 8.29047394 25.90855835 8.28515625 27.171875 C8.2837413 28.43138977 8.28232635 29.69090454 8.28086853 30.98858643 C8.27622073 34.32915119 8.26724281 37.66964721 8.25616455 41.01019287 C8.24591598 44.4221538 8.24136354 47.83412185 8.23632812 51.24609375 C8.22529963 57.93491725 8.20803524 64.62369921 8.1875 71.3125 C1.9175 71.3125 -4.3525 71.3125 -10.8125 71.3125 C-10.82708252 69.82403564 -10.84166504 68.33557129 -10.85668945 66.80200195 C-10.91469091 61.27604225 -10.99192447 55.75048923 -11.07495117 50.22485352 C-11.10819167 47.83397017 -11.13622629 45.44300852 -11.15893555 43.05200195 C-11.19249683 39.61375581 -11.24481524 36.17622671 -11.30078125 32.73828125 C-11.30717117 31.67039871 -11.3135611 30.60251617 -11.32014465 29.50227356 C-11.38776593 22.39464641 -11.38776593 22.39464641 -14.8125 16.3125 C-19.05009211 12.60460691 -22.9223041 11.94987466 -28.3984375 12.0390625 C-32.36417112 12.48825563 -35.76672198 13.71021857 -38.8125 16.3125 C-43.11974352 22.32632983 -43.41305711 27.2199954 -43.421875 34.49609375 C-43.43841125 35.55159927 -43.45494751 36.6071048 -43.47198486 37.69459534 C-43.52034237 41.04645682 -43.54180929 44.39786496 -43.5625 47.75 C-43.59066981 50.03062161 -43.62059865 52.31122222 -43.65234375 54.59179688 C-43.72609796 60.16528262 -43.77781221 65.73864151 -43.8125 71.3125 C-46.79172593 71.33933987 -49.77071295 71.35926037 -52.75 71.375 C-53.60013672 71.38337891 -54.45027344 71.39175781 -55.32617188 71.40039062 C-56.13505859 71.40361328 -56.94394531 71.40683594 -57.77734375 71.41015625 C-58.5262085 71.41539307 -59.27507324 71.42062988 -60.04663086 71.42602539 C-61.8125 71.3125 -61.8125 71.3125 -62.8125 70.3125 C-62.90689978 68.04258113 -62.92992226 65.76968033 -62.92602539 63.49780273 C-62.92617142 62.78564606 -62.92631744 62.07348938 -62.9264679 61.3397522 C-62.9257687 58.97516888 -62.91797606 56.61066339 -62.91015625 54.24609375 C-62.90829209 52.61084537 -62.90686818 50.97559643 -62.90586853 49.34034729 C-62.90204318 45.02815215 -62.89221275 40.71599048 -62.88116455 36.40380859 C-62.8709508 32.00684054 -62.86637099 27.60986711 -62.86132812 23.21289062 C-62.85059049 14.57940998 -62.83299356 5.94596301 -62.8125 -2.6875 C-56.5425 -2.6875 -50.2725 -2.6875 -43.8125 -2.6875 C-43.4825 0.9425 -43.1525 4.5725 -42.8125 8.3125 C-41.8225 7.075 -40.8325 5.8375 -39.8125 4.5625 C-29.75879253 -6.9594974 -12.78710924 -7.67226554 0 0 Z " fill="#121418" transform="translate(725.8125,580.6875)"/>
<path d="M0 0 C6.27 0 12.54 0 19 0 C19.0093457 1.51352051 19.01869141 3.02704102 19.02832031 4.58642578 C19.06824506 10.21123495 19.13401201 15.83549863 19.20751953 21.45996094 C19.23571451 23.89250675 19.25693632 26.32514392 19.27099609 28.7578125 C19.29244508 32.25828782 19.33910843 35.75766631 19.390625 39.2578125 C19.39185364 40.34240753 19.39308228 41.42700256 19.39434814 42.54446411 C19.51224298 48.64651513 19.85693475 52.39105167 24 57 C28.26066925 59.84044616 31.99879057 59.51414303 37 59 C40.65900069 57.60292701 43.54906128 56.09592259 46 53 C46.97241945 50.08274166 47.15167819 48.11196561 47.20532227 45.06958008 C47.22526749 44.06876907 47.24521271 43.06795807 47.26576233 42.03681946 C47.29083107 40.4195118 47.29083107 40.4195118 47.31640625 38.76953125 C47.33718735 37.66397385 47.35796844 36.55841644 47.37937927 35.4193573 C47.44482332 31.8838021 47.50373603 28.34817194 47.5625 24.8125 C47.6056901 22.41730992 47.64930454 20.02212745 47.69335938 17.62695312 C47.80049952 11.75137912 47.90178168 5.87572964 48 0 C54.27 0 60.54 0 67 0 C67 24.75 67 49.5 67 75 C61.06 75 55.12 75 49 75 C48.67 71.04 48.34 67.08 48 63 C47.46375 63.886875 46.9275 64.77375 46.375 65.6875 C43.00931072 70.71819457 38.79792831 74.08999433 33 76 C24.32042486 76.933418 16.77087853 75.8191555 9.25 71.375 C0.69770211 62.34757445 -0.30712498 51.71703582 -0.1953125 39.84375 C-0.1924826 38.70087524 -0.18965271 37.55800049 -0.18673706 36.38049316 C-0.17560025 32.75355268 -0.15050741 29.12686504 -0.125 25.5 C-0.11496181 23.03125358 -0.10583743 20.56250327 -0.09765625 18.09375 C-0.07568215 12.06240354 -0.04119703 6.03124455 0 0 Z " fill="#0F1116" transform="translate(501,468)"/>
<path d="M0 0 C5.79250926 4.61473473 9.25697517 10.01084519 10.15119934 17.48907471 C10.26127425 20.82271629 10.25093372 24.13383215 10.19140625 27.46875 C10.18574646 28.67679794 10.18008667 29.88484589 10.17425537 31.12950134 C10.15199478 34.96044761 10.10181499 38.79043361 10.05078125 42.62109375 C10.03070304 45.22980413 10.01245459 47.83852928 9.99609375 50.44726562 C9.95216338 56.81807424 9.88320522 63.18817159 9.80078125 69.55859375 C3.86078125 69.55859375 -2.07921875 69.55859375 -8.19921875 69.55859375 C-8.21380127 68.14118896 -8.22838379 66.72378418 -8.2434082 65.26342773 C-8.30153319 59.98713394 -8.3787658 54.71126056 -8.46166992 49.43530273 C-8.49485242 47.15509889 -8.52290499 44.87481422 -8.5456543 42.59448242 C-8.57932257 39.31003493 -8.63164601 36.02632361 -8.6875 32.7421875 C-8.69388992 31.72837509 -8.70027985 30.71456268 -8.7068634 29.67002869 C-8.82586969 23.8955143 -9.35765221 19.63406158 -12.19921875 14.55859375 C-15.97923847 11.83346325 -19.43691984 11.00489092 -24.11328125 11.2109375 C-29.20129621 12.05893999 -32.91111264 14.07194497 -36.27734375 17.95703125 C-39.20552683 22.48139799 -38.80229253 27.41859556 -38.80859375 32.64453125 C-38.82513 33.70145172 -38.84166626 34.75837219 -38.85870361 35.84732056 C-38.90712907 39.20947107 -38.92854318 42.5711694 -38.94921875 45.93359375 C-38.97738288 48.21877268 -39.00731092 50.5039306 -39.0390625 52.7890625 C-39.11288711 58.37886903 -39.16249548 63.96842533 -39.19921875 69.55859375 C-45.46921875 69.55859375 -51.73921875 69.55859375 -58.19921875 69.55859375 C-58.19921875 45.46859375 -58.19921875 21.37859375 -58.19921875 -3.44140625 C-51.92921875 -3.44140625 -45.65921875 -3.44140625 -39.19921875 -3.44140625 C-38.86921875 -0.14140625 -38.53921875 3.15859375 -38.19921875 6.55859375 C-37.53921875 5.65109375 -36.87921875 4.74359375 -36.19921875 3.80859375 C-27.51414598 -6.65803241 -10.87582689 -7.12820626 0 0 Z " fill="#0F1115" transform="translate(573.19921875,581.44140625)"/>
<path d="M0 0 C6.55659776 4.1243115 10.52665332 10.11953912 12.75 17.484375 C15.43304916 29.48356709 14.4047671 41.88889378 8.46875 52.77734375 C4.02861673 59.49658798 -2.3581265 62.85448977 -10 65 C-17.17328294 66.30665749 -22.95106851 63.4954639 -28.9140625 59.8203125 C-35.31505236 55.05481785 -39.69007097 46.86661218 -40.875 39 C-40.94991818 37.66812119 -40.98773963 36.33392787 -41 35 C-41.03738281 34.05125 -41.07476562 33.1025 -41.11328125 32.125 C-41.34611195 22.32160208 -40.09876137 12.55420628 -33.20703125 5.046875 C-23.61661653 -3.78298459 -11.86288019 -5.9314401 0 0 Z " fill="#FCFBFC" transform="translate(468,572)"/>
<path d="M0 0 C6.27 0 12.54 0 19 0 C19 6.27 19 12.54 19 19 C23.95 19 28.9 19 34 19 C34 23.95 34 28.9 34 34 C29.05 34 24.1 34 19 34 C19.09348657 39.7843867 19.19956981 45.56835245 19.31738281 51.35229492 C19.35568847 53.32032931 19.39053855 55.2884341 19.421875 57.2565918 C19.46749111 60.08407772 19.52549098 62.91107834 19.5859375 65.73828125 C19.59748871 66.61962234 19.60903992 67.50096344 19.62094116 68.40901184 C19.64081085 69.22963608 19.66068054 70.05026031 19.68115234 70.89575195 C19.69447601 71.61745071 19.70779968 72.33914948 19.7215271 73.0827179 C19.90726155 75.32601629 19.90726155 75.32601629 22 78 C24.43693311 78.36416047 24.43693311 78.36416047 27.125 78.1875 C28.03507813 78.16042969 28.94515625 78.13335937 29.8828125 78.10546875 C30.58148437 78.07066406 31.28015625 78.03585937 32 78 C33.64800856 81.66447432 34.33580973 84.81203466 34.625 88.8125 C34.69976563 89.78832031 34.77453125 90.76414062 34.8515625 91.76953125 C34.90054688 92.50558594 34.94953125 93.24164063 35 94 C26.12380438 96.07278391 16.12759719 96.43323483 8 92 C2.26452974 86.90180422 0.36140916 80.32087742 -0.15390015 72.73419189 C-0.37105647 66.42723721 -0.27371201 60.12115859 -0.1875 53.8125 C-0.17242581 51.88738026 -0.15874225 49.96224911 -0.14648438 48.03710938 C-0.11369566 43.35778716 -0.06206443 38.67902174 0 34 C-3.96 34 -7.92 34 -12 34 C-12 29.05 -12 24.1 -12 19 C-8.04 19 -4.08 19 0 19 C0 12.73 0 6.46 0 0 Z " fill="#0F1115" transform="translate(681,341)"/>
<path d="M0 0 C6.27 0 12.54 0 19 0 C19 6.27 19 12.54 19 19 C23.62 19 28.24 19 33 19 C33 23.95 33 28.9 33 34 C28.38 34 23.76 34 19 34 C19.11819525 39.6418279 19.24244003 45.28347768 19.37231445 50.92504883 C19.4156494 52.84460825 19.45732552 54.76420585 19.49731445 56.68383789 C19.55505178 59.44168614 19.61873635 62.19934241 19.68359375 64.95703125 C19.70030624 65.81649857 19.71701874 66.67596588 19.73423767 67.56147766 C19.75418289 68.36208115 19.77412811 69.16268463 19.79467773 69.98754883 C19.81799416 71.04344963 19.81799416 71.04344963 19.84178162 72.12068176 C19.94481604 74.22699083 19.94481604 74.22699083 21 77 C23.43387753 78.21693876 25.41838846 78.31959896 28.125 78.5625 C29.49011719 78.68818359 29.49011719 78.68818359 30.8828125 78.81640625 C31.58148437 78.87699219 32.28015625 78.93757812 33 79 C34.26305335 84.07476794 35.27036084 88.72796354 35 94 C28.09570148 96.16195206 18.36095882 96.12880832 11.4375 93.9375 C5.91710065 90.82600219 2.7938347 87.61109713 0.93554688 81.4987793 C-0.24397292 76.58951173 -0.25301023 71.83901348 -0.1953125 66.8125 C-0.1924826 65.86938965 -0.18965271 64.9262793 -0.18673706 63.95458984 C-0.17562442 60.96959244 -0.15053672 57.98490531 -0.125 55 C-0.11495866 52.96484811 -0.10583484 50.92969148 -0.09765625 48.89453125 C-0.07571435 43.92956963 -0.04124673 38.96483725 0 34 C-3.96 34 -7.92 34 -12 34 C-12 29.05 -12 24.1 -12 19 C-8.04 19 -4.08 19 0 19 C0 12.73 0 6.46 0 0 Z " fill="#0D0F13" transform="translate(923,449)"/>
<path d="M0 0 C6.27 0 12.54 0 19 0 C19 32.67 19 65.34 19 99 C12.73 99 6.46 99 0 99 C0 66.33 0 33.66 0 0 Z " fill="#0E1014" transform="translate(623,553)"/>
<path d="M0 0 C0 5.28 0 10.56 0 16 C-1.98 15.9175 -3.96 15.835 -6 15.75 C-11.66510477 15.76849327 -16.68947969 16.00951832 -21 20 C-25.35135387 26.07246928 -25.60065986 31.05587595 -25.609375 38.40234375 C-25.62591125 39.48004532 -25.64244751 40.55774689 -25.65948486 41.66810608 C-25.70785206 45.09129603 -25.72931155 48.51404204 -25.75 51.9375 C-25.77816899 54.26629824 -25.80809771 56.5950759 -25.83984375 58.92382812 C-25.91360856 64.61584887 -25.96325252 70.30762478 -26 76 C-32.27 76 -38.54 76 -45 76 C-45 50.92 -45 25.84 -45 0 C-38.73 0 -32.46 0 -26 0 C-25.67 2.97 -25.34 5.94 -25 9 C-23.700625 7.3603125 -23.700625 7.3603125 -22.375 5.6875 C-16.00413209 -1.64865093 -9.05049012 -2.26262253 0 0 Z " fill="#121418" transform="translate(545,360)"/>
<path d="M0 0 C1.32 0.66 2.64 1.32 4 2 C4 6.95 4 11.9 4 17 C1.855 16.896875 -0.29 16.79375 -2.5 16.6875 C-8.12439385 16.69318695 -11.79944616 17.16547789 -16.44921875 20.3203125 C-21.65824628 25.96233224 -21.46725144 32.06145703 -21.51171875 39.3046875 C-21.52966995 40.38380402 -21.54762115 41.46292053 -21.56611633 42.57473755 C-21.62012867 46.00811909 -21.6540867 49.44136231 -21.6875 52.875 C-21.720681 55.20835254 -21.75517138 57.54168685 -21.79101562 59.875 C-21.87585032 65.58323341 -21.94270534 71.29142642 -22 77 C-28.27 77 -34.54 77 -41 77 C-41 51.92 -41 26.84 -41 1 C-34.73 1 -28.46 1 -22 1 C-21.67 3.97 -21.34 6.94 -21 10 C-19.700625 8.3603125 -19.700625 8.3603125 -18.375 6.6875 C-13.19074468 0.71775145 -7.78204847 -1.08948679 0 0 Z " fill="#0D0F13" transform="translate(851,359)"/>
<path d="M0 0 C0 5.61 0 11.22 0 17 C-1.32 16.67 -2.64 16.34 -4 16 C-9.98623784 15.48632943 -14.89717871 15.47662339 -20 19 C-23.60233673 22.99177853 -25.1098125 25.40383937 -25.20532227 30.72509766 C-25.22526749 31.70596344 -25.24521271 32.68682922 -25.26576233 33.69741821 C-25.29083107 35.28965714 -25.29083107 35.28965714 -25.31640625 36.9140625 C-25.33718735 37.99883881 -25.35796844 39.08361511 -25.37937927 40.20126343 C-25.44490634 43.67577621 -25.50377447 47.15036624 -25.5625 50.625 C-25.60568221 52.97657058 -25.6492964 55.32813326 -25.69335938 57.6796875 C-25.80059098 63.45304529 -25.90184955 69.22648098 -26 75 C-32.27 75 -38.54 75 -45 75 C-45 50.25 -45 25.5 -45 0 C-38.73 0 -32.46 0 -26 0 C-25.67 2.97 -25.34 5.94 -25 9 C-24.56429687 8.44570313 -24.12859375 7.89140625 -23.6796875 7.3203125 C-17.30200219 -0.43782417 -9.84970881 -3.28323627 0 0 Z " fill="#0F1115" transform="translate(901,468)"/>
<path d="M0 0 C6.6 0 13.2 0 20 0 C20 25.08 20 50.16 20 76 C13.4 76 6.8 76 0 76 C0 50.92 0 25.84 0 0 Z " fill="#181A1E" transform="translate(554,360)"/>
<path d="M0 0 C5.31046061 2.12418425 7.76629719 5.82448836 10.08203125 10.890625 C12.65512664 19.6063013 12.18060243 29.77782679 8.2734375 38.0078125 C5.90910597 41.70661337 3.16469122 44.09222626 -0.9375 45.8125 C-6.85580723 46.35052793 -10.90520087 46.32269509 -16 43 C-22.0924757 37.04920978 -24.11258989 30.49933259 -24.4375 22.0625 C-24.24613148 15.53932963 -22.9545269 9.27108335 -18.46875 4.3046875 C-12.62902688 -0.7048789 -7.44851897 -0.65406392 0 0 Z " fill="#FBFBFB" transform="translate(629,483)"/>
<path d="M0 0 C5.49054314 3.20196161 8.79989752 6.97391131 10.83984375 13.09375 C10.98945839 16.00260382 11.07102686 18.87168858 11.08984375 21.78125 C11.11046875 22.55919922 11.13109375 23.33714844 11.15234375 24.13867188 C11.1946118 30.47359524 10.2782895 36.17315703 6.12109375 41.15234375 C5.53328125 41.60738281 4.94546875 42.06242188 4.33984375 42.53125 C3.75203125 43.00433594 3.16421875 43.47742188 2.55859375 43.96484375 C-1.64183567 46.72376216 -6.32176492 46.68197908 -11.16015625 46.09375 C-17.24253436 43.10994187 -20.12693871 38.93509823 -22.41015625 32.65625 C-24.16629439 24.37047097 -25.00407066 14.13505504 -20.4375 6.67578125 C-15.27576485 0.28280652 -8.0611459 -3.38189123 0 0 Z " fill="#FBFBFB" transform="translate(807.16015625,482.90625)"/>
<path d="M0 0 C4.96844501 3.4359384 7.62105543 7.9868015 8.75 13.9375 C9.36853006 23.48903145 9.17233565 31.74879756 3.8125 39.875 C0.11260532 43.57489468 -2.93905874 44.2465211 -8.125 44.3125 C-13.33266907 44.21113418 -16.35580633 43.63698398 -20.25 39.9375 C-26.05758325 32.67802094 -27.05057253 24.95982538 -26.25 15.9375 C-25.01056705 9.37579617 -22.22694928 4.40659731 -17.25 -0.0625 C-11.67765733 -3.43523372 -5.5299469 -3.13054722 0 0 Z " fill="#FAFAFA" transform="translate(721.25,484.0625)"/>
<path d="M0 0 C3.815625 -0.061875 7.63125 -0.12375 11.5625 -0.1875 C13.34636108 -0.22846802 13.34636108 -0.22846802 15.16625977 -0.27026367 C21.23642091 -0.31778661 25.6926518 -0.04721216 31 3 C35.34391613 7.68685688 36.16991062 10.42293889 36.25 16.75 C36.27578125 17.96171875 36.3015625 19.1734375 36.328125 20.421875 C35.96901527 24.3378811 35.06525488 26.67532568 33 30 C28.10329297 33.774545 24.57134229 35.1300071 18.45703125 35.09765625 C17.00647339 35.09390991 17.00647339 35.09390991 15.52661133 35.09008789 C14.30095459 35.08098389 13.07529785 35.07187988 11.8125 35.0625 C5.9653125 35.0315625 5.9653125 35.0315625 0 35 C0 23.45 0 11.9 0 0 Z " fill="#FDFDFD" transform="translate(432,352)"/>
<path d="M0 0 C4.95 0 9.9 0 15 0 C15 24.42 15 48.84 15 74 C10.05 74 5.1 74 0 74 C0 49.58 0 25.16 0 0 Z " fill="#131519" transform="translate(596,578)"/>
<path d="M0 0 C0.73605469 0.02255859 1.47210937 0.04511719 2.23046875 0.06835938 C4.02953842 0.12677073 5.82754753 0.21643663 7.625 0.3125 C7.71225659 4.5415362 7.7654789 8.77034012 7.8125 13 C7.83763672 14.19818359 7.86277344 15.39636719 7.88867188 16.63085938 C7.89833984 17.78779297 7.90800781 18.94472656 7.91796875 20.13671875 C7.9336792 21.19979248 7.94938965 22.26286621 7.96557617 23.3581543 C7.57294852 26.7640233 6.66342966 28.57819571 4.625 31.3125 C0.18761278 34.27075815 -4.16872963 33.96718071 -9.375 33.3125 C-12.0625 31.4375 -12.0625 31.4375 -13.375 29.3125 C-13.375 28.6525 -13.375 27.9925 -13.375 27.3125 C-11.70888095 27.269779 -10.04117115 27.27186168 -8.375 27.3125 C-8.045 27.6425 -7.715 27.9725 -7.375 28.3125 C-5.04202567 28.35342937 -2.70794775 28.35491723 -0.375 28.3125 C-0.045 26.6625 0.285 25.0125 0.625 23.3125 C0.03332031 23.43109375 -0.55835938 23.5496875 -1.16796875 23.671875 C-7.67765314 24.73381373 -7.67765314 24.73381373 -11.375 22.5 C-14.56575444 19.01011233 -14.63783535 16.6736027 -14.8125 12 C-14.87308594 10.86949219 -14.93367187 9.73898437 -14.99609375 8.57421875 C-14.30583278 4.94926334 -13.21084236 3.39006589 -10.22192383 1.21264648 C-6.8735067 -0.41929191 -3.64791296 -0.2143891 0 0 Z " fill="#48BCFB" transform="translate(951.375,681.6875)"/>
<path d="M0 0 C0.79978271 0.09168457 1.59956543 0.18336914 2.42358398 0.27783203 C3.02759033 0.34856934 3.63159668 0.41930664 4.25390625 0.4921875 C4.37024558 4.72112218 4.44120577 8.94964424 4.50390625 13.1796875 C4.55417969 14.97696289 4.55417969 14.97696289 4.60546875 16.81054688 C4.61835937 17.96748047 4.63125 19.12441406 4.64453125 20.31640625 C4.66547852 21.37947998 4.68642578 22.44255371 4.70800781 23.5378418 C4.14337331 27.21130527 2.78965902 28.83130367 0.25390625 31.4921875 C-3.01543653 33.78072744 -5.81590895 33.96380968 -9.74609375 33.4921875 C-15.45378606 30.36911058 -15.45378606 30.36911058 -16.74609375 26.4921875 C-14.74654629 26.44964394 -12.74567739 26.45137967 -10.74609375 26.4921875 C-10.41609375 26.8221875 -10.08609375 27.1521875 -9.74609375 27.4921875 C-6.78792268 27.74224136 -6.78792268 27.74224136 -3.74609375 27.4921875 C-3.08609375 26.8321875 -2.42609375 26.1721875 -1.74609375 25.4921875 C-1.74609375 24.1721875 -1.74609375 22.8521875 -1.74609375 21.4921875 C-2.40609375 22.1521875 -3.06609375 22.8121875 -3.74609375 23.4921875 C-8.38295359 23.94827207 -10.65937355 24.13959528 -14.68359375 21.7421875 C-18.3380188 17.75554199 -18.07752939 13.12236095 -18.0390625 7.90625 C-17.62473898 4.49222421 -16.25035348 2.77548314 -13.74609375 0.4921875 C-9.57574956 -1.5929846 -4.51363099 -0.5222383 0 0 Z " fill="#43BAFB" transform="translate(566.74609375,682.5078125)"/>
<path d="M0 0 C2.75329021 1.79562405 4.52627461 3.05254922 6 6 C6.14851844 7.93359586 6.22130833 9.87342097 6.25 11.8125 C6.27578125 12.85019531 6.3015625 13.88789062 6.328125 14.95703125 C5.95714 18.39747552 5.02123626 20.22265335 3 23 C-0.20925151 25.32394075 -3.11576115 25.33057352 -7 25 C-7.99 24.34 -8.98 23.68 -10 23 C-10.33 26.3 -10.66 29.6 -11 33 C-12.65 33 -14.3 33 -16 33 C-16 22.44 -16 11.88 -16 1 C-13.66666667 1 -11.33333333 1 -9 1 C-5.89951072 -0.55024464 -3.42105782 -0.28992015 0 0 Z " fill="#45BAFB" transform="translate(497,682)"/>
<path d="M0 0 C2.701875 -0.061875 5.40375 -0.12375 8.1875 -0.1875 C9.02949951 -0.21481201 9.87149902 -0.24212402 10.73901367 -0.27026367 C15.32319574 -0.32093869 18.29360873 0.00557089 22 3 C24.48386059 6.72579089 24.3804212 8.58711402 24 13 C22.34860695 16.5386994 21.28394771 17.81070153 18 20 C13.98500069 20.26874159 10.02862593 20.08663712 6 20 C6 23.96 6 27.92 6 32 C4.02 32 2.04 32 0 32 C0 21.44 0 10.88 0 0 Z " fill="#4CBDFA" transform="translate(791,674)"/>
<path d="M0 0 C1.98 0 3.96 0 6 0 C6 4.62 6 9.24 6 14 C10.95 14 15.9 14 21 14 C21 9.38 21 4.76 21 0 C22.98 0 24.96 0 27 0 C27 10.56 27 21.12 27 32 C25.02 32 23.04 32 21 32 C21 27.71 21 23.42 21 19 C16.05 19 11.1 19 6 19 C6 23.29 6 27.58 6 32 C4.02 32 2.04 32 0 32 C0 21.44 0 10.88 0 0 Z " fill="#48BCFB" transform="translate(407,674)"/>
<path d="M0 0 C3.4375 1.8125 3.4375 1.8125 6 4 C6.5775 4.474375 7.155 4.94875 7.75 5.4375 C10.77003029 9.21253786 11 12.17719656 11 17 C-0.22 17 -11.44 17 -23 17 C-21.89407098 10.3644259 -20.38463048 7.1519836 -15.4375 2.6875 C-10.64949636 -0.62727175 -5.63995753 -0.65008856 0 0 Z " fill="#F1F1F1" transform="translate(766,373)"/>
<path d="M0 0 C0.77085937 -0.01417969 1.54171875 -0.02835938 2.3359375 -0.04296875 C4.91248088 0.21644432 6.44925673 0.79409846 8.625 2.1875 C11.04636226 5.81954338 10.95429639 7.73893835 11 12.0625 C11.02835938 13.27679687 11.05671875 14.49109375 11.0859375 15.7421875 C10.54703898 19.77022557 9.50307932 21.37176175 6.625 24.1875 C2.97211807 25.40512731 0.46745864 25.57825851 -3.375 25.1875 C-6.35051795 23.41146702 -8.80255188 21.33239623 -10.375 18.1875 C-11.31262008 7.78145414 -11.31262008 7.78145414 -8.5 3 C-5.51031427 0.44997393 -3.8523421 0.0319962 0 0 Z " fill="#47BBFA" transform="translate(627.375,681.8125)"/>
<path d="M0 0 C3.13180809 1.62390049 5.24339744 3.00266026 7.375 5.8125 C8.73537221 10.57380273 8.56878187 13.92337717 6.25 18.3125 C2.90414114 22.30894252 1.35580057 22.82219009 -3.8125 23.5 C-8.03862779 23.34935004 -10.67532931 21.97249161 -13.6953125 19.04296875 C-15.86570019 15.64442754 -15.94953273 12.59264977 -15.6796875 8.63671875 C-14.71887827 4.90944158 -13.19177758 3.14313286 -10.06640625 0.96484375 C-6.34755403 -0.77155795 -4.09264659 -0.64962644 0 0 Z " fill="#4BB8FA" transform="translate(345,462)"/>
<path d="M0 0 C4.64314516 3.41129032 4.64314516 3.41129032 6.0625 6.25 C6.5575 10.21 6.5575 10.21 7.0625 14.25 C-3.8275 14.25 -14.7175 14.25 -25.9375 14.25 C-24.90013483 6.98844382 -24.03931256 4.87664375 -18.9375 0.25 C-13.56102979 -3.18496708 -5.55143187 -2.99376581 0 0 Z " fill="#F9F9F9" transform="translate(794.9375,591.75)"/>
<path d="M0 0 C1.65 0 3.3 0 5 0 C6.32 4.29 7.64 8.58 9 13 C10.90389849 10.14415227 11.69462177 8.0688238 12.625 4.8125 C12.88539063 3.91144531 13.14578125 3.01039063 13.4140625 2.08203125 C13.60742188 1.39496094 13.80078125 0.70789063 14 0 C15.98 0 17.96 0 20 0 C21.32 4.62 22.64 9.24 24 14 C25.32 9.38 26.64 4.76 28 0 C29.65 0 31.3 0 33 0 C32.28716318 5.12914773 30.93243564 9.93375614 29.4375 14.875 C29.20353516 15.65875 28.96957031 16.4425 28.72851562 17.25 C28.15556462 19.16763195 27.57822809 21.08395266 27 23 C25.02 23 23.04 23 21 23 C19.68 18.38 18.36 13.76 17 9 C15.68 13.62 14.36 18.24 13 23 C10.69 23 8.38 23 6 23 C5.18525038 20.1047827 4.37312678 17.20887172 3.5625 14.3125 C3.33240234 13.49587891 3.10230469 12.67925781 2.86523438 11.83789062 C1.76816554 7.91070219 0.71223092 4.01960209 0 0 Z " fill="#46BBFB" transform="translate(682,683)"/>
<path d="M0 0 C3.11141288 1.6437653 5.28893717 3.03036886 7.375 5.875 C8.69601084 10.36643685 8.48383625 13.10144696 6.25 17.25 C3.2772789 20.88332579 1.72224085 21.77535989 -2.875 22.375 C-6.84487514 21.89861498 -8.89536536 20.46959574 -12 18 C-14.45876515 14.31185227 -14.6943399 11.283157 -14 7 C-10.31376961 1.15287594 -6.88633847 -0.70030561 0 0 Z " fill="#121418" transform="translate(567,330)"/>
<path d="M0 0 C2.75569447 2.18159145 4.43588747 3.87177494 6 7 C6 8.98 6 10.96 6 13 C0.39 13 -5.22 13 -11 13 C-10.01 14.98 -9.02 16.96 -8 19 C-2.91696314 19.11320856 -2.91696314 19.11320856 2 18 C2.99 19.32 3.98 20.64 5 22 C1.41717829 24.68711628 -1.4982031 25.52972295 -6.00390625 25.359375 C-9.31541016 24.76317469 -11.45757239 23.11868967 -14 21 C-17.10542508 16.34186237 -16.74307763 11.45168836 -16 6 C-11.63376849 0.14005771 -7.05142904 -1.12043432 0 0 Z " fill="#47BBFB" transform="translate(456,682)"/>
<path d="M0 0 C1.65 0 3.3 0 5 0 C5.33 2.97 5.66 5.94 6 9 C6.66 8.67 7.32 8.34 8 8 C11.8176843 7.6398411 14.26464142 7.62596314 17.7109375 9.37890625 C21.20401611 13.37866008 20.54559314 17.12912295 20.3125 22.25 C20.28994141 23.18585937 20.26738281 24.12171875 20.24414062 25.0859375 C20.18530595 27.39225674 20.10317146 29.69530838 20 32 C18.35 32 16.7 32 15 32 C15 26.06 15 20.12 15 14 C12.36 14 9.72 14 7 14 C4.88074396 16.11925604 5.58168983 20.6196093 5.4375 23.5625 C5.39431641 24.36880859 5.35113281 25.17511719 5.30664062 26.00585938 C5.20024738 28.00368805 5.09959112 30.0018207 5 32 C3.35 32 1.7 32 0 32 C0 21.44 0 10.88 0 0 Z " fill="#47BCFB" transform="translate(752,674)"/>
<path d="M0 0 C2.76171875 -0.33984375 2.76171875 -0.33984375 6 0 C8.08203125 2.37109375 8.08203125 2.37109375 9.8125 5.4375 C10.68841797 6.95150391 10.68841797 6.95150391 11.58203125 8.49609375 C12.04996094 9.32238281 12.51789062 10.14867187 13 11 C13.33 11.33 13.66 11.66 14 12 C14.42410156 11.13375 14.84820313 10.2675 15.28515625 9.375 C20.01870708 0.38645513 20.01870708 0.38645513 23.0234375 -0.796875 C24.9375 -0.75 24.9375 -0.75 28 0 C27.08702392 1.71030852 26.16942376 3.41814895 25.25 5.125 C24.73953125 6.07632813 24.2290625 7.02765625 23.703125 8.0078125 C22 11 22 11 19.84375 13.875 C17.66094446 17.57467041 17.33925273 20.68823567 17.25 24.875 C17.20552734 25.90753906 17.20552734 25.90753906 17.16015625 26.9609375 C17.09019464 28.64001626 17.04274789 30.32000812 17 32 C15.02 32 13.04 32 11 32 C11.04382813 31.175 11.08765625 30.35 11.1328125 29.5 C11.10996726 19.26533286 7.86526468 13.44390528 2.15234375 5.203125 C0 2 0 2 0 0 Z " fill="#47BBFB" transform="translate(588,674)"/>
<path d="M0 0 C1.65 0 3.3 0 5 0 C5.33 0.66 5.66 1.32 6 2 C6.99 1.34 7.98 0.68 9 0 C14.69469027 -0.63274336 14.69469027 -0.63274336 17 0 C19.52485066 2.15912186 20.83598578 3.85572365 21.31420898 7.19213867 C21.39372684 9.74407759 21.34892558 12.26136154 21.25 14.8125 C21.23195313 15.69615234 21.21390625 16.57980469 21.1953125 17.49023438 C21.14838513 19.66062543 21.07664731 21.83045519 21 24 C19.35 24 17.7 24 16 24 C15.93941406 22.78441406 15.87882813 21.56882812 15.81640625 20.31640625 C15.73201668 18.73175772 15.6473679 17.14712298 15.5625 15.5625 C15.52318359 14.76005859 15.48386719 13.95761719 15.44335938 13.13085938 C15.5945704 9.24760439 15.5945704 9.24760439 14 6 C11.04182893 5.74994614 11.04182893 5.74994614 8 6 C5.06552643 8.93447357 5.53841577 12.18259456 5.375 16.125 C5.33632813 16.87910156 5.29765625 17.63320313 5.2578125 18.41015625 C5.16348969 20.27303184 5.08065338 22.13648255 5 24 C3.35 24 1.7 24 0 24 C0 16.08 0 8.16 0 0 Z " fill="#4BBDFB" transform="translate(910,682)"/>
<path d="M0 0 C1.65 0 3.3 0 5 0 C5.33 0.66 5.66 1.32 6 2 C6.99 1.34 7.98 0.68 9 0 C11.15625 -0.1171875 11.15625 -0.1171875 13.5 0.125 C14.2734375 0.18945312 15.046875 0.25390625 15.84375 0.3203125 C18 1 18 1 19.76953125 2.4453125 C21.69971761 6.45274703 21.31369125 10.3688988 21.1875 14.75 C21.16719727 16.08224609 21.16719727 16.08224609 21.14648438 17.44140625 C21.11121309 19.62822578 21.06192752 21.81379966 21 24 C19.35 24 17.7 24 16 24 C15.93941406 22.78441406 15.87882813 21.56882812 15.81640625 20.31640625 C15.73201668 18.73175772 15.6473679 17.14712298 15.5625 15.5625 C15.52318359 14.76005859 15.48386719 13.95761719 15.44335938 13.13085938 C15.5945704 9.24760439 15.5945704 9.24760439 14 6 C11.04182893 5.74994614 11.04182893 5.74994614 8 6 C5.06552643 8.93447357 5.53841577 12.18259456 5.375 16.125 C5.33632813 16.87910156 5.29765625 17.63320313 5.2578125 18.41015625 C5.16348969 20.27303184 5.08065338 22.13648255 5 24 C3.35 24 1.7 24 0 24 C0 16.08 0 8.16 0 0 Z " fill="#46BCFB" transform="translate(852,682)"/>
<path d="M0 0 C1.65 0 3.3 0 5 0 C5.33 0.66 5.66 1.32 6 2 C6.99 1.34 7.98 0.68 9 0 C13.18803628 -0.54289359 15.21858811 -0.55251346 18.70703125 1.9140625 C21.9211978 6.23977216 21.56614146 9.57968152 21.3125 14.8125 C21.28994141 15.69615234 21.26738281 16.57980469 21.24414062 17.49023438 C21.18547428 19.6608891 21.09579979 21.8306669 21 24 C19.35 24 17.7 24 16 24 C15.93941406 22.78441406 15.87882813 21.56882812 15.81640625 20.31640625 C15.73201668 18.73175772 15.6473679 17.14712298 15.5625 15.5625 C15.52318359 14.76005859 15.48386719 13.95761719 15.44335938 13.13085938 C15.5945704 9.24760439 15.5945704 9.24760439 14 6 C11.36 6 8.72 6 6 6 C5.67 11.94 5.34 17.88 5 24 C3.35 24 1.7 24 0 24 C0 16.08 0 8.16 0 0 Z " fill="#46BBFB" transform="translate(522,682)"/>
<path d="M0 0 C1.65 0 3.3 0 5 0 C5.06058594 1.28777344 5.12117187 2.57554687 5.18359375 3.90234375 C5.26798247 5.58074159 5.3526313 7.25912636 5.4375 8.9375 C5.47681641 9.78763672 5.51613281 10.63777344 5.55664062 11.51367188 C5.59853516 12.32255859 5.64042969 13.13144531 5.68359375 13.96484375 C5.72025146 14.7137085 5.75690918 15.46257324 5.79467773 16.23413086 C5.81771063 18.02461326 5.81771063 18.02461326 7 19 C10 19.16666667 10 19.16666667 13 19 C14.51421001 17.48578999 14.21309856 16.07527232 14.31640625 13.96484375 C14.35830078 13.15595703 14.40019531 12.34707031 14.44335938 11.51367188 C14.50233398 10.2384668 14.50233398 10.2384668 14.5625 8.9375 C14.60568359 8.08349609 14.64886719 7.22949219 14.69335938 6.34960938 C14.79976702 4.23327963 14.90041731 2.11666187 15 0 C16.65 0 18.3 0 20 0 C20 7.92 20 15.84 20 24 C17.66666667 24 15.33333333 24 13 24 C12.34 24.33 11.68 24.66 11 25 C7.16423648 25.51143514 5.52539468 25.36838898 2.3203125 23.12109375 C-0.98985709 18.66852556 -0.56004669 15.07640111 -0.3125 9.6875 C-0.28994141 8.75615234 -0.26738281 7.82480469 -0.24414062 6.86523438 C-0.18542078 4.5751604 -0.10336858 2.28842125 0 0 Z " fill="#4EBEFA" transform="translate(645,682)"/>
<path d="M0 0 C6.27 0 12.54 0 19 0 C18.67 3.96 18.34 7.92 18 12 C17.67 12 17.34 12 17 12 C17 8.7 17 5.4 17 2 C12.05 2 7.1 2 2 2 C2 25.76 2 49.52 2 74 C7.61 74 13.22 74 19 74 C19 74.66 19 75.32 19 76 C12.73 76 6.46 76 0 76 C0 50.92 0 25.84 0 0 Z " fill="#202124" transform="translate(810,360)"/>
<path d="M0 0 C1.65 0 3.3 0 5 0 C5 1.98 5 3.96 5 6 C6.65 6 8.3 6 10 6 C10 7.32 10 8.64 10 10 C8.35 10 6.7 10 5 10 C5 14.95 5 19.9 5 25 C6.65 25 8.3 25 10 25 C10 26.32 10 27.64 10 29 C3.9453125 29.1953125 3.9453125 29.1953125 2 29 C0 27 0 27 -0.1953125 23.0859375 C-0.18200376 21.51550649 -0.15813602 19.94513779 -0.125 18.375 C-0.11597656 17.57320312 -0.10695313 16.77140625 -0.09765625 15.9453125 C-0.07406223 13.96341477 -0.03819065 11.98167019 0 10 C-0.99 10 -1.98 10 -3 10 C-3 8.68 -3 7.36 -3 6 C-2.01 6 -1.02 6 0 6 C0 4.02 0 2.04 0 0 Z " fill="#42B9FB" transform="translate(735,677)"/>
<path d="M0 0 C1.65 0 3.3 0 5 0 C5 1.98 5 3.96 5 6 C6.65 6 8.3 6 10 6 C10 7.32 10 8.64 10 10 C8.35 10 6.7 10 5 10 C5 14.95 5 19.9 5 25 C6.65 25 8.3 25 10 25 C10 26.32 10 27.64 10 29 C3.9453125 29.1953125 3.9453125 29.1953125 2 29 C0 27 0 27 -0.1953125 23.0859375 C-0.18200376 21.51550649 -0.15813602 19.94513779 -0.125 18.375 C-0.11597656 17.57320312 -0.10695313 16.77140625 -0.09765625 15.9453125 C-0.07406223 13.96341477 -0.03819065 11.98167019 0 10 C-0.99 10 -1.98 10 -3 10 C-3 8.68 -3 7.36 -3 6 C-2.01 6 -1.02 6 0 6 C0 4.02 0 2.04 0 0 Z " fill="#43B9FB" transform="translate(881,677)"/>
<path d="M0 0 C0.66 0 1.32 0 2 0 C2 18.81 2 37.62 2 57 C-4.27 57 -10.54 57 -17 57 C-17 42.48 -17 27.96 -17 13 C-16.67 13 -16.34 13 -16 13 C-16 26.86 -16 40.72 -16 55 C-10.72 55 -5.44 55 0 55 C0 36.85 0 18.7 0 0 Z " fill="#1C1C1F" transform="translate(657,379)"/>
<path d="M0 0 C0.33 0 0.66 0 1 0 C1 1.65 1 3.3 1 5 C2.32 4.67 3.64 4.34 5 4 C5 7.63 5 11.26 5 15 C7.97 15 10.94 15 14 15 C14 15.33 14 15.66 14 16 C11.69 16.33 9.38 16.66 7 17 C9.31 17.33 11.62 17.66 14 18 C14 18.33 14 18.66 14 19 C11.03 19 8.06 19 5 19 C5 22.96 5 26.92 5 31 C3.35 31 1.7 31 0 31 C0 20.77 0 10.54 0 0 Z " fill="#3BB8FD" transform="translate(792,675)"/>
<path d="M0 0 C2.15174713 1.60623378 2.906388 2.49339389 3.3984375 5.15625 C3.39070313 5.9296875 3.38296875 6.703125 3.375 7.5 C3.38273437 8.2734375 3.39046875 9.046875 3.3984375 9.84375 C2.906388 12.50660611 2.15174713 13.39376622 0 15 C-5.13939394 15.64242424 -5.13939394 15.64242424 -7.6640625 13.7578125 C-9.35152036 11.53747321 -9.4026536 10.26536019 -9.375 7.5 C-9.38273437 6.7265625 -9.39046875 5.953125 -9.3984375 5.15625 C-8.41808061 -0.1492108 -4.82244972 -0.60280621 0 0 Z " fill="#F6FCFE" transform="translate(495,687)"/>
<path d="M0 0 C2.39286884 2.39286884 2.32050616 3.09447094 2.375 6.375 C2.29173469 9.60153081 2.11489492 10.81440051 0.375 13.625 C-2 15 -2 15 -5.125 14.9375 C-8 14 -8 14 -10 11 C-10.54468716 7.4913658 -10.6202561 4.16754089 -8.9375 1 C-5.91000701 -0.56257703 -3.33615038 -0.3032864 0 0 Z " fill="#F4FBFD" transform="translate(564,687)"/>
<path d="M0 0 C2.80872754 2.34060628 2.98435997 3.85402637 3.375 7.5 C2.98435997 11.14597363 2.80872754 12.65939372 0 15 C-3 15.5 -3 15.5 -6 15 C-8.2288277 13.21693784 -8.87382488 11.8709588 -9.28125 9.05859375 C-9.41375481 6.06067237 -9.36447879 3.6479623 -7.875 1 C-5.06836961 -0.49686954 -3.12242157 -0.45535315 0 0 Z " fill="#F6FCFE" transform="translate(631,687)"/>
<path d="M0 0 C3.5625 0.3125 3.5625 0.3125 5.5 1.375 C7.22888145 4.52766617 7.04832979 6.79023401 6.5625 10.3125 C4.375 13.3125 4.375 13.3125 1.5625 15.3125 C-1.125 15.3125 -1.125 15.3125 -3.4375 14.3125 C-5.52690868 11.17838698 -5.71114412 10.33799528 -5.6875 6.75 C-5.69265625 5.96496094 -5.6978125 5.17992187 -5.703125 4.37109375 C-5.20949746 0.54548032 -3.63502845 0.33045713 0 0 Z " fill="#F5FBFE" transform="translate(947.4375,686.6875)"/>
<path d="M0 0 C1.32 0 2.64 0 4 0 C4.14505993 4.58300125 4.23399681 9.16541363 4.3125 13.75 C4.35439453 15.05195312 4.39628906 16.35390625 4.43945312 17.6953125 C4.45556641 18.94570313 4.47167969 20.19609375 4.48828125 21.484375 C4.51446533 22.63647461 4.54064941 23.78857422 4.56762695 24.97558594 C4 28 4 28 1.64160156 30.37402344 C-2.73655236 33.06889452 -7.02412348 32.78082985 -12 32 C-14.6875 30.125 -14.6875 30.125 -16 28 C-16 27.34 -16 26.68 -16 26 C-14.33388095 25.957279 -12.66617115 25.95936168 -11 26 C-10.67 26.33 -10.34 26.66 -10 27 C-8.14712498 27.07226502 -6.29166122 27.0838122 -4.4375 27.0625 C-3.42558594 27.05347656 -2.41367187 27.04445313 -1.37109375 27.03515625 C-0.58863281 27.02355469 0.19382812 27.01195312 1 27 C2.23759823 23.28720531 2.35608897 19.68693654 2.5625 15.8125 C2.60568359 15.06291016 2.64886719 14.31332031 2.69335938 13.54101562 C2.79922685 11.69421625 2.9000976 9.84713166 3 8 C2.34 8 1.68 8 1 8 C1 9.98 1 11.96 1 14 C0.67 14 0.34 14 0 14 C-0.39180108 12.42074025 -0.76280736 10.83631206 -1.125 9.25 C-1.33382812 8.36828125 -1.54265625 7.4865625 -1.7578125 6.578125 C-2.03088304 3.67124507 -1.53508028 2.43338652 0 0 Z " fill="#45BAFA" transform="translate(954,683)"/>
<path d="M0 0 C0.94875 0.04125 1.8975 0.0825 2.875 0.125 C2.875 1.775 2.875 3.425 2.875 5.125 C1.740625 5.434375 0.60625 5.74375 -0.5625 6.0625 C-3.91275099 6.75424531 -3.91275099 6.75424531 -5.125 8.125 C-5.36178716 10.81735776 -5.54698025 13.48998156 -5.6875 16.1875 C-5.73068359 16.94611328 -5.77386719 17.70472656 -5.81835938 18.48632812 C-5.92473633 20.36565438 -6.02539934 22.24530244 -6.125 24.125 C-7.445 24.125 -8.765 24.125 -10.125 24.125 C-10.125 16.535 -10.125 8.945 -10.125 1.125 C-7.65 1.62 -7.65 1.62 -5.125 2.125 C-3.125 0.125 -3.125 0.125 0 0 Z " fill="#40B9FC" transform="translate(831.125,681.875)"/>
<path d="M0 0 C6.27 0 12.54 0 19 0 C19 6.27 19 12.54 19 19 C23.62 19 28.24 19 33 19 C33 19.33 33 19.66 33 20 C28.05 20 23.1 20 18 20 C17.67 14.06 17.34 8.12 17 2 C12.05 2 7.1 2 2 2 C2.01160156 3.21558594 2.02320313 4.43117188 2.03515625 5.68359375 C2.04453278 7.26822764 2.05363313 8.85286318 2.0625 10.4375 C2.07087891 11.23994141 2.07925781 12.04238281 2.08789062 12.86914062 C2.0965143 14.91295221 2.0522815 16.95683902 2 19 C1 20 1 20 -1.72265625 20.09765625 C-4.81510417 20.06510417 -7.90755208 20.03255208 -11 20 C-11 24.62 -11 29.24 -11 34 C-11.33 34 -11.66 34 -12 34 C-12 29.05 -12 24.1 -12 19 C-8.04 19 -4.08 19 0 19 C0 12.73 0 6.46 0 0 Z " fill="#333438" transform="translate(923,449)"/>
<path d="M0 0 C1.32 0 2.64 0 4 0 C4 10.56 4 21.12 4 32 C2.68 32 1.36 32 0 32 C0 21.44 0 10.88 0 0 Z " fill="#3BB8FD" transform="translate(469,674)"/>
<path d="M0 0 C1.60875 -0.04125 3.2175 -0.0825 4.875 -0.125 C5.77992188 -0.14820313 6.68484375 -0.17140625 7.6171875 -0.1953125 C10 0 10 0 12 2 C12.3125 5.5 12.3125 5.5 12 9 C7.7975546 11.80163026 4.99895065 11.14489712 0 11 C0 7.37 0 3.74 0 0 Z " fill="#F4FBFD" transform="translate(797,679)"/>
<path d="M0 0 C1.65 0 3.3 0 5 0 C5 7.92 5 15.84 5 24 C3.35 24 1.7 24 0 24 C0 16.08 0 8.16 0 0 Z " fill="#49BCFA" transform="translate(898,682)"/>
<path d="M0 0 C1.65 0 3.3 0 5 0 C5 7.92 5 15.84 5 24 C3.35 24 1.7 24 0 24 C0 16.08 0 8.16 0 0 Z " fill="#49BCFB" transform="translate(721,682)"/>
<path d="M0 0 C1.65 0 3.3 0 5 0 C5 7.59 5 15.18 5 23 C3.35 23 1.7 23 0 23 C0 15.41 0 7.82 0 0 Z " fill="#42BAFC" transform="translate(840,683)"/>
<path d="M0 0 C1.65 0 3.3 0 5 0 C5 7.59 5 15.18 5 23 C3.35 23 1.7 23 0 23 C0 15.41 0 7.82 0 0 Z " fill="#44BBFB" transform="translate(510,683)"/>
<path d="M0 0 C1.32 0 2.64 0 4 0 C4 4.29 4 8.58 4 13 C3.34 13 2.68 13 2 13 C2 14.32 2 15.64 2 17 C2.66 17 3.32 17 4 17 C4.33 21.62 4.66 26.24 5 31 C3.35 31 1.7 31 0 31 C0 20.77 0 10.54 0 0 Z " fill="#3BB8FD" transform="translate(408,675)"/>
<path d="M0 0 C0.79921875 0.01804687 1.5984375 0.03609375 2.421875 0.0546875 C3.02515625 0.07789063 3.6284375 0.10109375 4.25 0.125 C4.25 0.785 4.25 1.445 4.25 2.125 C2.93 2.455 1.61 2.785 0.25 3.125 C1.075 3.90875 1.9 4.6925 2.75 5.5 C5.25 8.125 5.25 8.125 5.25 10.125 C1.29 10.125 -2.67 10.125 -6.75 10.125 C-6.75 9.135 -6.75 8.145 -6.75 7.125 C-8.07 6.795 -9.39 6.465 -10.75 6.125 C-9.79632051 3.74080127 -9.17010128 2.39032713 -6.96875 1 C-4.47106748 0.01499844 -2.6723318 -0.07859799 0 0 Z " fill="#4EBEFA" transform="translate(451.75,681.875)"/>
<path d="M0 0 C1.98 0 3.96 0 6 0 C6.33 4.62 6.66 9.24 7 14 C8.65 14.33 10.3 14.66 12 15 C12 15.66 12 16.32 12 17 C14.97 17.33 17.94 17.66 21 18 C21 18.33 21 18.66 21 19 C16.05 19 11.1 19 6 19 C6 22.96 6 26.92 6 31 C5.67 31 5.34 31 5 31 C5 26.71 5 22.42 5 18 C4.34 18 3.68 18 3 18 C2.67 18.99 2.34 19.98 2 21 C2.33 18.69 2.66 16.38 3 14 C3.66 14 4.32 14 5 14 C5 9.71 5 5.42 5 1 C3.68 1 2.36 1 1 1 C1 11.23 1 21.46 1 32 C0.67 32 0.34 32 0 32 C0 21.44 0 10.88 0 0 Z " fill="#5FC3F9" transform="translate(407,674)"/>
<path d="M0 0 C0.99 0.66 1.98 1.32 3 2 C0.45815804 5.10669573 -2.20900211 5.89429228 -6 7 C-6.99 7.33 -7.98 7.66 -9 8 C-8.938125 9.093125 -8.87625 10.18625 -8.8125 11.3125 C-9 15 -9 15 -10.5 16.9375 C-10.995 17.288125 -11.49 17.63875 -12 18 C-13.84862688 14.30274625 -13.47587094 10.03538558 -13 6 C-9.42954732 0.16826062 -6.65247951 -0.3501305 0 0 Z " fill="#51BFFA" transform="translate(562,682)"/>
<path d="M0 0 C6.27 0 12.54 0 19 0 C19 0.66 19 1.32 19 2 C13.39 2 7.78 2 2 2 C2 7.94 2 13.88 2 20 C-2.29 20 -6.58 20 -11 20 C-11 24.62 -11 29.24 -11 34 C-11.33 34 -11.66 34 -12 34 C-12 29.05 -12 24.1 -12 19 C-8.04 19 -4.08 19 0 19 C0 12.73 0 6.46 0 0 Z " fill="#424345" transform="translate(681,341)"/>
<path d="M0 0 C5.61 0 11.22 0 17 0 C17.33 0.66 17.66 1.32 18 2 C14.99431793 4.00378805 13.99484235 4.29045938 10.5625 4.5625 C7.51925781 4.81481619 5.00844833 5.24788792 2 6 C1.67 14.58 1.34 23.16 1 32 C0.67 32 0.34 32 0 32 C0 21.44 0 10.88 0 0 Z " fill="#64C6FA" transform="translate(791,674)"/>
<path d="M0 0 C3.898125 0.0309375 3.898125 0.0309375 7.875 0.0625 C7.875 8.6425 7.875 17.2225 7.875 26.0625 C7.545 26.0625 7.215 26.0625 6.875 26.0625 C6.875 17.8125 6.875 9.5625 6.875 1.0625 C3.95499325 2.85468096 3.95499325 2.85468096 2.1875 4.8125 C-1.0115296 6.54170519 -2.90836003 5.78683267 -6.3203125 4.8984375 C-8.125 4.0625 -8.125 4.0625 -10.125 1.0625 C-6.93953711 -0.53023144 -3.49300652 -0.03891833 0 0 Z " fill="#65C6F9" transform="translate(951.125,681.9375)"/>
<path d="M0 0 C2.475 0.495 2.475 0.495 5 1 C5 1.99 5 2.98 5 4 C8.63 4 12.26 4 16 4 C16 4.33 16 4.66 16 5 C18.97 5.495 18.97 5.495 22 6 C22 6.33 22 6.66 22 7 C16.39 7 10.78 7 5 7 C4.67 8.32 4.34 9.64 4 11 C3.67 10.01 3.34 9.02 3 8 C2.01 8.33 1.02 8.66 0 9 C0 6.03 0 3.06 0 0 Z " fill="#3AB6FB" transform="translate(440,688)"/>
<path d="M0 0 C1.32 0 2.64 0 4 0 C4 4.95 4 9.9 4 15 C3.34 15 2.68 15 2 15 C1.67 15.99 1.34 16.98 1 18 C-0.2062252 14.38132441 -0.10816918 11.07493749 -0.0625 7.3125 C-0.05798828 6.61060547 -0.05347656 5.90871094 -0.04882812 5.18554688 C-0.03706927 3.45699462 -0.01913454 1.72848635 0 0 Z " fill="#40BAFC" transform="translate(645,683)"/>
<path d="M0 0 C1.32 0 2.64 0 4 0 C4 8.91 4 17.82 4 27 C3.67 27 3.34 27 3 27 C3 20.73 3 14.46 3 8 C2.34 8 1.68 8 1 8 C1 9.98 1 11.96 1 14 C0.67 14 0.34 14 0 14 C-0.39180108 12.42074025 -0.76280736 10.83631206 -1.125 9.25 C-1.33382812 8.36828125 -1.54265625 7.4865625 -1.7578125 6.578125 C-2.03088304 3.67124507 -1.53508028 2.43338652 0 0 Z " fill="#38B7FC" transform="translate(954,683)"/>
<path d="M0 0 C0.66 0 1.32 0 2 0 C3.35862973 3.90480249 2.89469712 7.7101776 2.5625 11.75 C2.51029297 12.44738281 2.45808594 13.14476562 2.40429688 13.86328125 C2.27525928 15.57596203 2.13840386 17.28805066 2 19 C1.01 19 0.02 19 -1 19 C-1.02683987 16.02077407 -1.04676037 13.04178705 -1.0625 10.0625 C-1.07087891 9.21236328 -1.07925781 8.36222656 -1.08789062 7.48632812 C-1.09111328 6.67744141 -1.09433594 5.86855469 -1.09765625 5.03515625 C-1.10289307 4.2862915 -1.10812988 3.53742676 -1.11352539 2.76586914 C-1 1 -1 1 0 0 Z " fill="#43BCFC" transform="translate(913,686)"/>
<path d="M0 0 C6.48292295 -0.3669579 6.48292295 -0.3669579 8.9375 1.375 C10 3 10 3 10 5 C6.04 5 2.08 5 -2 5 C-1.34 3.35 -0.68 1.7 0 0 Z " fill="#E4F5FC" transform="translate(447,687)"/>
<path d="M0 0 C1.98 0 3.96 0 6 0 C6.33 1.65 6.66 3.3 7 5 C9.31 5 11.62 5 14 5 C13.67 5.66 13.34 6.32 13 7 C7.72611976 7.50227431 5.08984305 6.32894202 1 3 C0.67 2.01 0.34 1.02 0 0 Z " fill="#59C1F8" transform="translate(550,709)"/>
<path d="M0 0 C1.32 1.32 2.64 2.64 4 4 C-0.48074195 7.36055646 -3.60550707 7.27429625 -9 7 C-9 6.34 -9 5.68 -9 5 C-8.071875 4.731875 -7.14375 4.46375 -6.1875 4.1875 C-3.23759634 3.08851629 -1.94384814 2.37581439 0 0 Z " fill="#58C1F9" transform="translate(457,700)"/>
<path d="M0 0 C0.99 0 1.98 0 3 0 C3 4.95 3 9.9 3 15 C0.03 14.505 0.03 14.505 -3 14 C-1.68 13.67 -0.36 13.34 1 13 C0.67 8.71 0.34 4.42 0 0 Z " fill="#17181B" transform="translate(852,361)"/>
<path d="M0 0 C0 3.10551666 -0.5393715 4.35261084 -2 7 C-4.64 6.67 -7.28 6.34 -10 6 C-9.67 5.01 -9.34 4.02 -9 3 C-7.88625 2.87625 -6.7725 2.7525 -5.625 2.625 C-1.96896323 2.3534187 -1.96896323 2.3534187 0 0 Z " fill="#40B8FB" transform="translate(660,699)"/>
<path d="M0 0 C1.2065625 0.0309375 1.2065625 0.0309375 2.4375 0.0625 C3 2 3 2 3.4375 4.0625 C2.4375 5.0625 2.4375 5.0625 -0.125 5.125 C-1.3315625 5.0940625 -1.3315625 5.0940625 -2.5625 5.0625 C-3.125 3.125 -3.125 3.125 -3.5625 1.0625 C-2.5625 0.0625 -2.5625 0.0625 0 0 Z " fill="#4FBDF7" transform="translate(512.5625,672.9375)"/>
<path d="M0 0 C1.25127906 3.54667178 0.72285053 5.72253438 -0.4375 9.25 C-0.72496094 10.14203125 -1.01242187 11.0340625 -1.30859375 11.953125 C-1.53675781 12.62859375 -1.76492188 13.3040625 -2 14 C-3.65 14 -5.3 14 -7 14 C-5.68 13.67 -4.36 13.34 -3 13 C-3.01160156 12.37351562 -3.02320313 11.74703125 -3.03515625 11.1015625 C-3.04417969 10.28429687 -3.05320312 9.46703125 -3.0625 8.625 C-3.07410156 7.81289063 -3.08570313 7.00078125 -3.09765625 6.1640625 C-3 4 -3 4 -2 2 C-1.34 2 -0.68 2 0 2 C0 1.34 0 0.68 0 0 Z " fill="#3CB7FC" transform="translate(711,692)"/>
<path d="M0 0 C1.60031344 3.20062687 0.03173691 5.72271806 -1 9 C-2.32 9 -3.64 9 -5 9 C-5 9.66 -5 10.32 -5 11 C-5.66 11 -6.32 11 -7 11 C-6.67 8.69 -6.34 6.38 -6 4 C-4.02 4.495 -4.02 4.495 -2 5 C-1.34 3.35 -0.68 1.7 0 0 Z " fill="#5CC2F9" transform="translate(714,685)"/>
<path d="M0 0 C1.65 0 3.3 0 5 0 C5.5625 1.9375 5.5625 1.9375 6 4 C5 5 5 5 2.4375 5.0625 C1.2309375 5.0315625 1.2309375 5.0315625 0 5 C0 3.35 0 1.7 0 0 Z " fill="#45B8F7" transform="translate(721,673)"/>
<path d="M0 0 C1.2065625 0.0309375 1.2065625 0.0309375 2.4375 0.0625 C2.4375 1.7125 2.4375 3.3625 2.4375 5.0625 C0.7875 5.0625 -0.8625 5.0625 -2.5625 5.0625 C-3.125 3.125 -3.125 3.125 -3.5625 1.0625 C-2.5625 0.0625 -2.5625 0.0625 0 0 Z " fill="#49B9F7" transform="translate(900.5625,672.9375)"/>
<path d="M0 0 C0.99 0.33 1.98 0.66 3 1 C-0.31909349 5.39291786 -2.79887886 7.8227865 -8 10 C-8.66 9.34 -9.32 8.68 -10 8 C-9.0925 7.608125 -8.185 7.21625 -7.25 6.8125 C-3.85881606 4.9212628 -2.20967163 3.1445327 0 0 Z " fill="#1E1F22" transform="translate(815,520)"/>
<path d="M0 0 C-1.50888831 4.22488728 -4.32623964 5.65504658 -8 8 C-8.33 8.66 -8.66 9.32 -9 10 C-9.66 9.67 -10.32 9.34 -11 9 C-10.06725891 7.87105124 -9.12859878 6.74699124 -8.1875 5.625 C-7.66542969 4.99851562 -7.14335938 4.37203125 -6.60546875 3.7265625 C-4.60437547 1.57453518 -3.0502442 0 0 0 Z " fill="#1D1D20" transform="translate(621,362)"/>
<path d="M0 0 C1.65 0 3.3 0 5 0 C5 1.65 5 3.3 5 5 C3.35 5 1.7 5 0 5 C0 3.35 0 1.7 0 0 Z " fill="#3EB7F9" transform="translate(840,673)"/>
<path d="M0 0 C0 3 0 3 -1.3125 4.38671875 C-2.875 5.59114583 -4.4375 6.79557292 -6 8 C-6.66 7.67 -7.32 7.34 -8 7 C-5.36 4.69 -2.72 2.38 0 0 Z " fill="#1A1B1D" transform="translate(692,580)"/>
</svg>
